<?xml version="1.0" encoding="UTF-8"?>
<svg id="Layer_2" data-name="Layer 2" xmlns="http://www.w3.org/2000/svg" viewBox="0 0 328.48 37.1">
  <defs>
    <style>
      .cls-1 {
        fill: #424142;
      }

      .cls-2 {
        fill: #00264b;
      }
    </style>
  </defs>
  <g id="Layer_1-2" data-name="Layer 1">
    <g>
      <path class="cls-1" d="M15.33,33c-1.56,1.95-4,3.17-7.61,3.17H0V.88h7.27c3.66,0,6.15.83,7.76,2.34,2.98,2.78,3.27,7.27,3.27,15.18,0,6.44-.49,11.52-2.98,14.6ZM14.06,4.98c-1.42-1.71-3.66-2.44-6.44-2.44H1.9v31.92h6.39c1.71,0,3.42-.54,4.59-1.51,2.73-2.29,3.42-7.32,3.42-14.6,0-5.37.05-10.54-2.25-13.37Z"/>
      <path class="cls-1" d="M40.37,36.17c-.2-.98-.54-2.05-.54-6.05,0-1.46-.1-2.88-.15-4.15-.24-5.32-.44-7.71-6.54-7.71h-5.22v17.91h-1.9V.88h7.86c6.05,0,8.2,2.59,8.2,8.2,0,5.03-1.42,7.52-5.52,8.4,4.64.49,4.73,3.66,4.93,7.08.1,1.85.1,3.66.15,5.52.05,2.1.15,4.05.54,6.1h-1.81ZM34.02,2.59h-6.1v14.01h4.15c5.96,0,8.05-1.32,8.05-7.52,0-4.69-1.76-6.49-6.1-6.49Z"/>
      <path class="cls-1" d="M67.95,36.17l-2.93-9.76h-13.62l-2.98,9.76h-1.9L57.26.88h2.05l10.64,35.29h-2ZM58.24,3.37l-6.3,21.33h12.5l-6.2-21.33Z"/>
      <path class="cls-1" d="M75.32,36.17V.88h1.9v35.29h-1.9Z"/>
      <path class="cls-1" d="M103.24,36.17L87.77,2.73v33.44h-1.81V.88h3.03l15.52,33.44V.88h1.76v35.29h-3.03Z"/>
      <path class="cls-2" d="M154.6,36.17h-8.88l-1.03-30.22-18.35,30.22h-8.88l-1.42-35.24h6.78l.29,30.46L141.42.93h8.79l1.17,30.46L168.85.93h7.37l-21.62,35.24Z"/>
      <path class="cls-2" d="M201.61,36.17l-1.71-8.44h-21.18l-6.59,8.44h-7.76L192.77.93h8.1l8.1,35.24h-7.37ZM195.56,6l-13.08,16.89h16.45l-3.37-16.89Z"/>
      <path class="cls-2" d="M247.25,6h-14.3l-8.59,30.17h-6.83l8.59-30.17h-14.55l1.46-5.08h35.63l-1.42,5.08Z"/>
      <path class="cls-2" d="M284.3,10.98h-7.32c.05-.29.05-.59.05-.88,0-4.2-3.95-5.08-7.37-5.08-7.37,0-12.74,4.3-15.38,10.25-1.17,2.64-2.1,5.96-2.1,8.64,0,5.91,4.2,8.15,9.57,8.15,4.64,0,9.37-2,11.37-6.44h7.37c-3.27,8.79-11.23,11.47-20.06,11.47s-15.43-4.05-15.43-12.98c0-6.54,3.71-14.11,8.54-18.4,4.39-3.86,10.1-5.71,17.13-5.71,5.52,0,13.77,1.76,13.77,8.93,0,.78,0,1.12-.15,2.05Z"/>
      <path class="cls-2" d="M318.38,36.17h-6.83l4.44-15.57h-20.89l-4.44,15.57h-6.83L293.92.93h6.83l-4.15,14.55h20.89l4.15-14.55h6.83l-10.1,35.24Z"/>
    </g>
  </g>
</svg>